<svg width="1046" height="749" viewBox="0 0 1046 749" fill="none" xmlns="http://www.w3.org/2000/svg">
<path d="M457.823 0C557.032 0 652.141 39.5605 722.243 109.663C792.345 179.765 831.905 274.874 831.905 374.083C831.905 525.355 740.691 661.665 600.897 719.674C461.103 777.477 300.401 745.501 193.403 638.503C86.405 531.505 54.4286 370.803 112.232 231.009C170.24 91.2147 306.55 0 457.823 0V0Z" fill="url(#paint0_linear_502_12)"/>
<g filter="url(#filter0_d_502_12)">
<path d="M1045.51 455.354C1045.51 455.354 850.863 576.796 727.513 642.57L625.326 561.163C472.045 439.149 227.634 469.271 92.655 506.447C39.6548 520.937 5.71948 534.282 5.71948 534.282C709.211 173.957 1045.51 455.354 1045.51 455.354Z" fill="black"/>
</g>
<path d="M178.624 473.099C547.503 377.699 765.015 410.771 896.03 549.418" stroke="#FFFF00" stroke-width="22.8778" stroke-dasharray="114.39 57.19"/>
<g filter="url(#filter1_d_502_12)">
<mask id="path-4-outside-1_502_12" maskUnits="userSpaceOnUse" x="90.564" y="95.1365" width="667" height="558" fill="black">
<rect fill="white" x="90.564" y="95.1365" width="667" height="558"/>
<path d="M117.32 247.745C119.608 240.31 122.659 232.874 126.09 225.82C130.285 216.86 135.432 208.281 141.151 200.083C147.252 191.313 154.687 183.496 163.076 176.824C172.227 169.388 182.522 163.669 193.389 159.284C205.781 154.327 219.317 152.611 232.663 152.611C250.774 152.611 270.03 155.09 286.616 162.906C299.961 169.198 311.782 177.777 320.742 189.597C328.876 200.528 333.96 212.729 335.994 226.202C337.9 239.928 337.138 253.846 333.897 267.382C330.465 281.68 323.983 294.644 315.213 306.464C306.062 318.857 294.433 329.152 280.897 336.968L276.13 339.828L277.465 350.886L282.994 352.411C304.156 358.13 325.89 368.044 339.807 385.965C351.436 401.217 358.3 418.184 359.444 437.44C360.778 458.22 356.203 478.429 348.195 497.303C339.235 518.656 326.843 537.721 311.4 554.879C295.767 572.419 277.084 586.527 256.303 597.584C235.713 608.451 213.598 613.98 190.339 613.98C177.565 613.98 164.982 612.073 152.781 608.26C141.151 604.829 130.475 599.491 121.133 591.674C112.237 584.43 105.5 575.469 100.925 564.793C95.9679 553.163 95.7772 540.199 97.6837 527.807C98.4463 523.613 99.9715 516.94 103.022 513.89C103.594 513.318 105.691 511.411 106.644 511.411C107.597 511.602 108.741 513.318 108.932 513.89C110.648 516.749 110.266 521.516 109.885 524.566C108.36 532.954 110.457 540.771 116.558 547.062C121.515 552.019 127.425 555.642 133.907 558.311C140.389 560.98 147.125 562.759 154.116 563.649C159.072 564.411 164.601 565.174 169.749 565.174C193.008 565.174 216.267 561.17 237.047 550.494C254.587 541.152 270.22 528.951 282.231 512.936C293.098 498.257 300.724 481.861 304.537 463.94C307.969 447.163 308.35 430.386 304.156 413.799C300.152 397.785 292.145 384.058 280.134 372.81C266.789 360.418 250.012 354.698 232.091 353.173H231.519H230.184L229.422 353.364C219.508 355.842 198.155 360.799 188.051 357.939C183.857 356.796 181.95 355.461 182.331 350.886C182.522 349.17 183.285 348.216 184.619 347.073C187.288 344.975 190.72 343.832 193.961 343.26C199.109 342.116 204.637 341.734 209.975 341.734C216.648 341.734 223.13 342.306 229.612 343.26L230.375 343.45H231.9L232.663 343.26C246.771 340.209 258.591 333.155 268.314 322.479C278.037 311.993 285.472 299.982 290.81 286.637C296.339 272.91 299.389 258.612 300.152 243.741C300.724 229.633 299.389 215.335 295.005 201.799C291.001 188.644 283.756 177.396 273.271 168.435C261.832 158.522 247.533 154.709 232.663 154.709C224.083 154.709 216.076 158.14 208.832 162.525C200.443 167.673 193.008 174.727 186.716 182.543C179.281 191.694 173.371 202.18 168.795 212.856C163.267 225.63 160.026 239.166 158.5 252.702C157.928 258.231 157.738 264.141 158.31 269.86C158.691 272.91 158.882 276.342 158.119 279.392C157.929 280.536 157.547 281.108 156.403 281.68C154.116 283.015 146.871 283.205 144.202 283.205C137.339 283.205 123.802 282.443 119.036 276.533C115.223 271.767 113.507 266.619 114.079 260.518C114.651 256.515 116.177 251.558 117.32 247.745V247.745ZM729.682 200.655C723.772 196.461 717.29 192.457 710.999 188.644C702.992 184.068 694.603 180.065 686.024 176.442C675.538 172.248 664.481 170.342 653.232 170.342C634.168 170.342 615.293 175.489 597.754 182.734C578.308 190.932 559.624 200.845 542.084 212.475C524.545 224.105 507.768 236.687 492.135 250.605C478.789 262.425 465.635 275.198 454.768 289.116C447.523 298.267 439.516 310.087 436.847 321.526C433.606 335.634 442.947 343.45 456.483 343.45C465.444 343.45 475.739 340.4 484.127 337.159C496.138 332.774 508.34 328.58 520.732 324.576C536.174 319.429 552.189 315.425 568.203 311.993C587.649 307.99 607.477 306.464 627.304 306.464C648.657 306.464 674.013 308.18 694.412 315.616C707.567 320.382 721.294 327.245 731.207 337.54C739.024 345.738 744.934 355.08 747.603 365.947C750.082 376.242 751.607 386.727 751.607 397.404C751.607 420.853 747.413 443.731 738.643 465.465C730.064 487.39 718.243 507.598 703.945 526.091C689.265 544.775 672.297 561.552 653.804 576.422C635.311 591.102 615.865 603.876 594.894 614.552C575.448 624.466 555.239 632.854 534.268 638.574C516.156 643.721 497.473 646.962 478.789 646.962C469.829 646.962 460.487 644.484 452.099 641.624C441.613 637.811 432.271 632.091 424.073 624.847C414.922 617.03 407.678 607.498 402.149 597.012C395.667 585.001 393.379 571.847 393.379 558.311C393.379 554.688 393.76 548.397 396.429 545.537C397.764 544.012 399.48 542.678 401.577 542.868C404.246 543.059 406.343 544.775 407.868 546.681C410.537 549.541 411.109 553.544 411.109 557.357C411.109 564.983 413.397 572.228 418.354 578.138C422.548 583.286 427.886 587.289 433.987 590.149C439.834 592.818 445.871 594.661 452.099 595.678C457.246 596.631 462.584 597.203 467.922 597.203C481.458 597.203 495.376 593.581 508.149 589.005C523.782 583.476 538.653 576.041 552.951 567.462C568.775 558.12 583.646 547.253 597.754 535.242C612.052 523.041 625.207 509.695 637.027 495.016C648.275 481.289 657.808 466.228 665.243 450.023C672.297 434.58 676.301 418.184 676.301 401.217C676.301 391.303 675.919 381.389 674.585 371.666C673.632 362.706 671.344 353.745 667.34 345.738C663.527 337.921 658.189 331.439 650.945 326.673C642.747 321.335 633.024 319.429 623.491 319.429C602.139 319.429 580.786 321.907 560.005 327.436C542.466 332.011 524.926 337.54 508.149 344.213C495.376 349.36 482.602 354.698 470.401 360.799C467.35 362.324 457.055 367.281 453.814 367.281C447.523 367.281 441.613 365.756 435.893 363.087C429.793 360.291 424.327 356.605 419.498 352.029C414.922 347.454 410.919 342.497 407.678 336.778C405.39 332.583 403.674 328.008 403.674 323.051C403.674 307.99 408.821 292.929 415.494 279.583C424.455 261.853 435.703 245.266 448.286 230.015C462.775 212.475 478.789 196.461 496.138 181.781C513.869 166.529 532.743 152.802 552.57 140.41C571.063 128.971 590.509 119.248 610.909 111.622C628.067 105.331 646.369 101.136 664.671 101.136C674.776 101.136 684.308 103.424 693.078 108.762C701.721 114.228 709.219 120.964 715.574 128.971C721.866 137.169 727.013 146.32 730.826 155.852C734.258 164.622 737.118 173.773 738.452 183.115C739.405 189.025 739.787 196.079 738.071 201.799C738.071 202.371 737.499 203.896 737.118 204.468C735.02 204.277 731.017 201.608 729.682 200.655V200.655Z"/>
</mask>
<path d="M117.32 247.745C119.608 240.31 122.659 232.874 126.09 225.82C130.285 216.86 135.432 208.281 141.151 200.083C147.252 191.313 154.687 183.496 163.076 176.824C172.227 169.388 182.522 163.669 193.389 159.284C205.781 154.327 219.317 152.611 232.663 152.611C250.774 152.611 270.03 155.09 286.616 162.906C299.961 169.198 311.782 177.777 320.742 189.597C328.876 200.528 333.96 212.729 335.994 226.202C337.9 239.928 337.138 253.846 333.897 267.382C330.465 281.68 323.983 294.644 315.213 306.464C306.062 318.857 294.433 329.152 280.897 336.968L276.13 339.828L277.465 350.886L282.994 352.411C304.156 358.13 325.89 368.044 339.807 385.965C351.436 401.217 358.3 418.184 359.444 437.44C360.778 458.22 356.203 478.429 348.195 497.303C339.235 518.656 326.843 537.721 311.4 554.879C295.767 572.419 277.084 586.527 256.303 597.584C235.713 608.451 213.598 613.98 190.339 613.98C177.565 613.98 164.982 612.073 152.781 608.26C141.151 604.829 130.475 599.491 121.133 591.674C112.237 584.43 105.5 575.469 100.925 564.793C95.9679 553.163 95.7772 540.199 97.6837 527.807C98.4463 523.613 99.9715 516.94 103.022 513.89C103.594 513.318 105.691 511.411 106.644 511.411C107.597 511.602 108.741 513.318 108.932 513.89C110.648 516.749 110.266 521.516 109.885 524.566C108.36 532.954 110.457 540.771 116.558 547.062C121.515 552.019 127.425 555.642 133.907 558.311C140.389 560.98 147.125 562.759 154.116 563.649C159.072 564.411 164.601 565.174 169.749 565.174C193.008 565.174 216.267 561.17 237.047 550.494C254.587 541.152 270.22 528.951 282.231 512.936C293.098 498.257 300.724 481.861 304.537 463.94C307.969 447.163 308.35 430.386 304.156 413.799C300.152 397.785 292.145 384.058 280.134 372.81C266.789 360.418 250.012 354.698 232.091 353.173H231.519H230.184L229.422 353.364C219.508 355.842 198.155 360.799 188.051 357.939C183.857 356.796 181.95 355.461 182.331 350.886C182.522 349.17 183.285 348.216 184.619 347.073C187.288 344.975 190.72 343.832 193.961 343.26C199.109 342.116 204.637 341.734 209.975 341.734C216.648 341.734 223.13 342.306 229.612 343.26L230.375 343.45H231.9L232.663 343.26C246.771 340.209 258.591 333.155 268.314 322.479C278.037 311.993 285.472 299.982 290.81 286.637C296.339 272.91 299.389 258.612 300.152 243.741C300.724 229.633 299.389 215.335 295.005 201.799C291.001 188.644 283.756 177.396 273.271 168.435C261.832 158.522 247.533 154.709 232.663 154.709C224.083 154.709 216.076 158.14 208.832 162.525C200.443 167.673 193.008 174.727 186.716 182.543C179.281 191.694 173.371 202.18 168.795 212.856C163.267 225.63 160.026 239.166 158.5 252.702C157.928 258.231 157.738 264.141 158.31 269.86C158.691 272.91 158.882 276.342 158.119 279.392C157.929 280.536 157.547 281.108 156.403 281.68C154.116 283.015 146.871 283.205 144.202 283.205C137.339 283.205 123.802 282.443 119.036 276.533C115.223 271.767 113.507 266.619 114.079 260.518C114.651 256.515 116.177 251.558 117.32 247.745V247.745ZM729.682 200.655C723.772 196.461 717.29 192.457 710.999 188.644C702.992 184.068 694.603 180.065 686.024 176.442C675.538 172.248 664.481 170.342 653.232 170.342C634.168 170.342 615.293 175.489 597.754 182.734C578.308 190.932 559.624 200.845 542.084 212.475C524.545 224.105 507.768 236.687 492.135 250.605C478.789 262.425 465.635 275.198 454.768 289.116C447.523 298.267 439.516 310.087 436.847 321.526C433.606 335.634 442.947 343.45 456.483 343.45C465.444 343.45 475.739 340.4 484.127 337.159C496.138 332.774 508.34 328.58 520.732 324.576C536.174 319.429 552.189 315.425 568.203 311.993C587.649 307.99 607.477 306.464 627.304 306.464C648.657 306.464 674.013 308.18 694.412 315.616C707.567 320.382 721.294 327.245 731.207 337.54C739.024 345.738 744.934 355.08 747.603 365.947C750.082 376.242 751.607 386.727 751.607 397.404C751.607 420.853 747.413 443.731 738.643 465.465C730.064 487.39 718.243 507.598 703.945 526.091C689.265 544.775 672.297 561.552 653.804 576.422C635.311 591.102 615.865 603.876 594.894 614.552C575.448 624.466 555.239 632.854 534.268 638.574C516.156 643.721 497.473 646.962 478.789 646.962C469.829 646.962 460.487 644.484 452.099 641.624C441.613 637.811 432.271 632.091 424.073 624.847C414.922 617.03 407.678 607.498 402.149 597.012C395.667 585.001 393.379 571.847 393.379 558.311C393.379 554.688 393.76 548.397 396.429 545.537C397.764 544.012 399.48 542.678 401.577 542.868C404.246 543.059 406.343 544.775 407.868 546.681C410.537 549.541 411.109 553.544 411.109 557.357C411.109 564.983 413.397 572.228 418.354 578.138C422.548 583.286 427.886 587.289 433.987 590.149C439.834 592.818 445.871 594.661 452.099 595.678C457.246 596.631 462.584 597.203 467.922 597.203C481.458 597.203 495.376 593.581 508.149 589.005C523.782 583.476 538.653 576.041 552.951 567.462C568.775 558.12 583.646 547.253 597.754 535.242C612.052 523.041 625.207 509.695 637.027 495.016C648.275 481.289 657.808 466.228 665.243 450.023C672.297 434.58 676.301 418.184 676.301 401.217C676.301 391.303 675.919 381.389 674.585 371.666C673.632 362.706 671.344 353.745 667.34 345.738C663.527 337.921 658.189 331.439 650.945 326.673C642.747 321.335 633.024 319.429 623.491 319.429C602.139 319.429 580.786 321.907 560.005 327.436C542.466 332.011 524.926 337.54 508.149 344.213C495.376 349.36 482.602 354.698 470.401 360.799C467.35 362.324 457.055 367.281 453.814 367.281C447.523 367.281 441.613 365.756 435.893 363.087C429.793 360.291 424.327 356.605 419.498 352.029C414.922 347.454 410.919 342.497 407.678 336.778C405.39 332.583 403.674 328.008 403.674 323.051C403.674 307.99 408.821 292.929 415.494 279.583C424.455 261.853 435.703 245.266 448.286 230.015C462.775 212.475 478.789 196.461 496.138 181.781C513.869 166.529 532.743 152.802 552.57 140.41C571.063 128.971 590.509 119.248 610.909 111.622C628.067 105.331 646.369 101.136 664.671 101.136C674.776 101.136 684.308 103.424 693.078 108.762C701.721 114.228 709.219 120.964 715.574 128.971C721.866 137.169 727.013 146.32 730.826 155.852C734.258 164.622 737.118 173.773 738.452 183.115C739.405 189.025 739.787 196.079 738.071 201.799C738.071 202.371 737.499 203.896 737.118 204.468C735.02 204.277 731.017 201.608 729.682 200.655V200.655Z" fill="#FFFF00"/>
<path d="M117.32 247.745C119.608 240.31 122.659 232.874 126.09 225.82C130.285 216.86 135.432 208.281 141.151 200.083C147.252 191.313 154.687 183.496 163.076 176.824C172.227 169.388 182.522 163.669 193.389 159.284C205.781 154.327 219.317 152.611 232.663 152.611C250.774 152.611 270.03 155.09 286.616 162.906C299.961 169.198 311.782 177.777 320.742 189.597C328.876 200.528 333.96 212.729 335.994 226.202C337.9 239.928 337.138 253.846 333.897 267.382C330.465 281.68 323.983 294.644 315.213 306.464C306.062 318.857 294.433 329.152 280.897 336.968L276.13 339.828L277.465 350.886L282.994 352.411C304.156 358.13 325.89 368.044 339.807 385.965C351.436 401.217 358.3 418.184 359.444 437.44C360.778 458.22 356.203 478.429 348.195 497.303C339.235 518.656 326.843 537.721 311.4 554.879C295.767 572.419 277.084 586.527 256.303 597.584C235.713 608.451 213.598 613.98 190.339 613.98C177.565 613.98 164.982 612.073 152.781 608.26C141.151 604.829 130.475 599.491 121.133 591.674C112.237 584.43 105.5 575.469 100.925 564.793C95.9679 553.163 95.7772 540.199 97.6837 527.807C98.4463 523.613 99.9715 516.94 103.022 513.89C103.594 513.318 105.691 511.411 106.644 511.411C107.597 511.602 108.741 513.318 108.932 513.89C110.648 516.749 110.266 521.516 109.885 524.566C108.36 532.954 110.457 540.771 116.558 547.062C121.515 552.019 127.425 555.642 133.907 558.311C140.389 560.98 147.125 562.759 154.116 563.649C159.072 564.411 164.601 565.174 169.749 565.174C193.008 565.174 216.267 561.17 237.047 550.494C254.587 541.152 270.22 528.951 282.231 512.936C293.098 498.257 300.724 481.861 304.537 463.94C307.969 447.163 308.35 430.386 304.156 413.799C300.152 397.785 292.145 384.058 280.134 372.81C266.789 360.418 250.012 354.698 232.091 353.173H231.519H230.184L229.422 353.364C219.508 355.842 198.155 360.799 188.051 357.939C183.857 356.796 181.95 355.461 182.331 350.886C182.522 349.17 183.285 348.216 184.619 347.073C187.288 344.975 190.72 343.832 193.961 343.26C199.109 342.116 204.637 341.734 209.975 341.734C216.648 341.734 223.13 342.306 229.612 343.26L230.375 343.45H231.9L232.663 343.26C246.771 340.209 258.591 333.155 268.314 322.479C278.037 311.993 285.472 299.982 290.81 286.637C296.339 272.91 299.389 258.612 300.152 243.741C300.724 229.633 299.389 215.335 295.005 201.799C291.001 188.644 283.756 177.396 273.271 168.435C261.832 158.522 247.533 154.709 232.663 154.709C224.083 154.709 216.076 158.14 208.832 162.525C200.443 167.673 193.008 174.727 186.716 182.543C179.281 191.694 173.371 202.18 168.795 212.856C163.267 225.63 160.026 239.166 158.5 252.702C157.928 258.231 157.738 264.141 158.31 269.86C158.691 272.91 158.882 276.342 158.119 279.392C157.929 280.536 157.547 281.108 156.403 281.68C154.116 283.015 146.871 283.205 144.202 283.205C137.339 283.205 123.802 282.443 119.036 276.533C115.223 271.767 113.507 266.619 114.079 260.518C114.651 256.515 116.177 251.558 117.32 247.745V247.745ZM729.682 200.655C723.772 196.461 717.29 192.457 710.999 188.644C702.992 184.068 694.603 180.065 686.024 176.442C675.538 172.248 664.481 170.342 653.232 170.342C634.168 170.342 615.293 175.489 597.754 182.734C578.308 190.932 559.624 200.845 542.084 212.475C524.545 224.105 507.768 236.687 492.135 250.605C478.789 262.425 465.635 275.198 454.768 289.116C447.523 298.267 439.516 310.087 436.847 321.526C433.606 335.634 442.947 343.45 456.483 343.45C465.444 343.45 475.739 340.4 484.127 337.159C496.138 332.774 508.34 328.58 520.732 324.576C536.174 319.429 552.189 315.425 568.203 311.993C587.649 307.99 607.477 306.464 627.304 306.464C648.657 306.464 674.013 308.18 694.412 315.616C707.567 320.382 721.294 327.245 731.207 337.54C739.024 345.738 744.934 355.08 747.603 365.947C750.082 376.242 751.607 386.727 751.607 397.404C751.607 420.853 747.413 443.731 738.643 465.465C730.064 487.39 718.243 507.598 703.945 526.091C689.265 544.775 672.297 561.552 653.804 576.422C635.311 591.102 615.865 603.876 594.894 614.552C575.448 624.466 555.239 632.854 534.268 638.574C516.156 643.721 497.473 646.962 478.789 646.962C469.829 646.962 460.487 644.484 452.099 641.624C441.613 637.811 432.271 632.091 424.073 624.847C414.922 617.03 407.678 607.498 402.149 597.012C395.667 585.001 393.379 571.847 393.379 558.311C393.379 554.688 393.76 548.397 396.429 545.537C397.764 544.012 399.48 542.678 401.577 542.868C404.246 543.059 406.343 544.775 407.868 546.681C410.537 549.541 411.109 553.544 411.109 557.357C411.109 564.983 413.397 572.228 418.354 578.138C422.548 583.286 427.886 587.289 433.987 590.149C439.834 592.818 445.871 594.661 452.099 595.678C457.246 596.631 462.584 597.203 467.922 597.203C481.458 597.203 495.376 593.581 508.149 589.005C523.782 583.476 538.653 576.041 552.951 567.462C568.775 558.12 583.646 547.253 597.754 535.242C612.052 523.041 625.207 509.695 637.027 495.016C648.275 481.289 657.808 466.228 665.243 450.023C672.297 434.58 676.301 418.184 676.301 401.217C676.301 391.303 675.919 381.389 674.585 371.666C673.632 362.706 671.344 353.745 667.34 345.738C663.527 337.921 658.189 331.439 650.945 326.673C642.747 321.335 633.024 319.429 623.491 319.429C602.139 319.429 580.786 321.907 560.005 327.436C542.466 332.011 524.926 337.54 508.149 344.213C495.376 349.36 482.602 354.698 470.401 360.799C467.35 362.324 457.055 367.281 453.814 367.281C447.523 367.281 441.613 365.756 435.893 363.087C429.793 360.291 424.327 356.605 419.498 352.029C414.922 347.454 410.919 342.497 407.678 336.778C405.39 332.583 403.674 328.008 403.674 323.051C403.674 307.99 408.821 292.929 415.494 279.583C424.455 261.853 435.703 245.266 448.286 230.015C462.775 212.475 478.789 196.461 496.138 181.781C513.869 166.529 532.743 152.802 552.57 140.41C571.063 128.971 590.509 119.248 610.909 111.622C628.067 105.331 646.369 101.136 664.671 101.136C674.776 101.136 684.308 103.424 693.078 108.762C701.721 114.228 709.219 120.964 715.574 128.971C721.866 137.169 727.013 146.32 730.826 155.852C734.258 164.622 737.118 173.773 738.452 183.115C739.405 189.025 739.787 196.079 738.071 201.799C738.071 202.371 737.499 203.896 737.118 204.468C735.02 204.277 731.017 201.608 729.682 200.655V200.655Z" stroke="white" stroke-width="11.4389" stroke-linejoin="round" mask="url(#path-4-outside-1_502_12)"/>
</g>
<defs>
<filter id="filter0_d_502_12" x="3.8147e-05" y="350.761" width="1045.51" height="305.155" filterUnits="userSpaceOnUse" color-interpolation-filters="sRGB">
<feFlood flood-opacity="0" result="BackgroundImageFix"/>
<feColorMatrix in="SourceAlpha" type="matrix" values="0 0 0 0 0 0 0 0 0 0 0 0 0 0 0 0 0 0 127 0" result="hardAlpha"/>
<feOffset dx="-5.71944" dy="13.3454"/>
<feComposite in2="hardAlpha" operator="out"/>
<feColorMatrix type="matrix" values="0 0 0 0 0 0 0 0 0 0 0 0 0 0 0 0 0 0 0.1 0"/>
<feBlend mode="normal" in2="BackgroundImageFix" result="effect1_dropShadow_502_12"/>
<feBlend mode="normal" in="SourceGraphic" in2="effect1_dropShadow_502_12" result="shape"/>
</filter>
<filter id="filter1_d_502_12" x="90.8445" y="95.417" width="677.921" height="564.89" filterUnits="userSpaceOnUse" color-interpolation-filters="sRGB">
<feFlood flood-opacity="0" result="BackgroundImageFix"/>
<feColorMatrix in="SourceAlpha" type="matrix" values="0 0 0 0 0 0 0 0 0 0 0 0 0 0 0 0 0 0 127 0" result="hardAlpha"/>
<feOffset dx="11.4389" dy="7.62593"/>
<feComposite in2="hardAlpha" operator="out"/>
<feColorMatrix type="matrix" values="0 0 0 0 0 0 0 0 0 0 0 0 0 0 0 0 0 0 0.7 0"/>
<feBlend mode="normal" in2="BackgroundImageFix" result="effect1_dropShadow_502_12"/>
<feBlend mode="normal" in="SourceGraphic" in2="effect1_dropShadow_502_12" result="shape"/>
</filter>
<linearGradient id="paint0_linear_502_12" x1="457.856" y1="0" x2="457.856" y2="748.098" gradientUnits="userSpaceOnUse">
<stop offset="0.104167" stop-color="#006633"/>
<stop offset="0.9375" stop-opacity="0"/>
</linearGradient>
</defs>
</svg>
